<?xml version="1.0" encoding="UTF-8" standalone="no"?>
<!-- Created with Inkscape (http://www.inkscape.org/) -->

<svg
   width="16pt"
   height="16pt"
   viewBox="0 0 21.333333 21.333333"
   version="1.1"
   id="svg1"
   inkscape:version="1.4 (e7c3feb1, 2024-10-09)"
   sodipodi:docname="test.svg"
   xml:space="preserve"
   xmlns:inkscape="http://www.inkscape.org/namespaces/inkscape"
   xmlns:sodipodi="http://sodipodi.sourceforge.net/DTD/sodipodi-0.dtd"
   xmlns="http://www.w3.org/2000/svg"
   xmlns:svg="http://www.w3.org/2000/svg"><sodipodi:namedview
     id="namedview1"
     pagecolor="#000000"
     bordercolor="#000000"
     borderopacity="0.25"
     inkscape:showpageshadow="2"
     inkscape:pageopacity="0.0"
     inkscape:pagecheckerboard="0"
     inkscape:deskcolor="#d1d1d1"
     inkscape:document-units="px"
     inkscape:zoom="6.6315973"
     inkscape:cx="0.82936278"
     inkscape:cy="4.9761767"
     inkscape:window-width="1104"
     inkscape:window-height="1035"
     inkscape:window-x="7"
     inkscape:window-y="46"
     inkscape:window-maximized="0"
     inkscape:current-layer="layer1" /><defs
     id="defs1" /><g
     inkscape:label="Layer 1"
     inkscape:groupmode="layer"
     id="layer1"><g
       id="g1"
       transform="matrix(0.03918134,0,0,0.03918134,0.65691236,-0.49633219)"><path
         fill="#ffffff"
         d="m 42.785,248.79 c 15.414,-9.731 30.281,-21.36 44.278,-33.958 38.261,-34.434 66.476,-72.906 76.519,-87.977 l 16.918,-25.375 18.035,24.594 c 19.352,26.387 49.426,65.211 82.672,97.258 16.621,16.023 33.512,29.84 49.762,39.543 16.441,9.813 30.664,14.48 42.363,14.48 h 94.945 a 212.282,212.282 0 0 1 -8.718,42.668 h -86.227 c -22.43,0 -44.387,-8.664 -64.234,-20.515 -20.04,-11.965 -39.547,-28.149 -57.504,-45.457 -26.653,-25.696 -51.04,-55.004 -69.918,-79.422 -15.461,20.098 -38.262,46.89 -66.07,71.918 -19.97,17.973 -43.376,35.812 -69.204,49.414 A 214.49,214.49 0 0 1 42.668,256 c 0,-2.414 0.039,-4.82 0.117,-7.21 z m 0,0"
         id="path1" /><path
         fill="#ffffff"
         d="m 58.605,337.055 c 10.833,-5.145 21.278,-10.793 31.188,-16.696 38.578,-22.964 67.004,-50.722 76.309,-60.21 l 14.523,-14.817 15.215,14.11 c 2.84,2.632 5.883,5.495 9.105,8.527 18.473,17.367 42.88,40.32 69.559,58.394 32.004,21.68 63.883,36.328 90.672,36.328 h 75.605 a 214.237,214.237 0 0 1 -32.453,42.664 h -43.152 c -40.137,0 -81.008,-20.91 -114.606,-43.671 -23.047,-15.614 -44.285,-34.954 -61.566,-50.688 -2.61,-2.379 -5.129,-4.672 -7.55,-6.86 l -0.27,0.235 c -15.829,13.863 -40.043,35.074 -69.563,52.652 -10.246,6.094 -21.258,12.106 -32.89,17.7 A 212.45,212.45 0 0 1 58.605,337.055 Z m 0,0"
         id="path2" /><path
         fill="#ffffff"
         d="m 105.29,406.988 c 31.62,-16.398 54.483,-32.91 62.554,-39.492 L 180.707,357 l 13.336,9.89 c 19.102,14.169 47.289,34.712 78.656,51.712 26.594,14.414 53.707,25.285 78.293,28.468 a 211.912,211.912 0 0 1 -74.207,21.262 c -8.418,-3.844 -16.59,-7.977 -24.414,-12.219 -27.371,-14.832 -52.203,-31.949 -70.894,-45.511 -9.97,7.074 -23.637,16.023 -40.106,25.347 a 214.215,214.215 0 0 1 -36.082,-28.96 z m 0,0"
         id="path3" /><path
         fill="#ffffff"
         d="m 410.977,234.691 -61.032,-84.714 -34.125,47.375 c 13.399,12.468 25.93,22.265 37.024,28.886 13.023,7.778 19.515,8.453 20.488,8.453 z m 0,0"
         id="path4" /></g></g></svg>
